<?xml version="1.0" encoding="UTF-8" standalone="no"?>
<!DOCTYPE svg PUBLIC "-//W3C//DTD SVG 1.1//EN"
 "http://www.w3.org/Graphics/SVG/1.1/DTD/svg11.dtd">
<!-- Generated by graphviz version 2.40.1 (20161225.0304)
 -->
<!-- Title: G Pages: 1 -->
<svg width="171pt" height="130pt"
 viewBox="0.00 0.00 171.02 130.00" xmlns="http://www.w3.org/2000/svg" xmlns:xlink="http://www.w3.org/1999/xlink">
<g id="graph0" class="graph" transform="scale(1 1) rotate(0) translate(4 126)">
<title>G</title>
<polygon fill="#ffffff" stroke="transparent" points="-4,4 -4,-126 167.0161,-126 167.0161,4 -4,4"/>
<g id="clust1" class="cluster">
<title>cluster_Global</title>
<path fill="none" stroke="#c0c0c0" d="M20,-8C20,-8 143.0161,-8 143.0161,-8 149.0161,-8 155.0161,-14 155.0161,-20 155.0161,-20 155.0161,-102 155.0161,-102 155.0161,-108 149.0161,-114 143.0161,-114 143.0161,-114 20,-114 20,-114 14,-114 8,-108 8,-102 8,-102 8,-20 8,-20 8,-14 14,-8 20,-8"/>
<text text-anchor="middle" x="81.5081" y="-101.2" font-family="Times,serif" font-size="11.00" fill="#c0c0c0">Global</text>
</g>
<g id="clust2" class="cluster">
<title>cluster_\OhMyBrew</title>
<path fill="none" stroke="#c0c0c0" d="M28,-16C28,-16 135.0161,-16 135.0161,-16 141.0161,-16 147.0161,-22 147.0161,-28 147.0161,-28 147.0161,-75 147.0161,-75 147.0161,-81 141.0161,-87 135.0161,-87 135.0161,-87 28,-87 28,-87 22,-87 16,-81 16,-75 16,-75 16,-28 16,-28 16,-22 22,-16 28,-16"/>
<text text-anchor="middle" x="81.5081" y="-74.2" font-family="Times,serif" font-size="11.00" fill="#c0c0c0">OhMyBrew</text>
</g>
<!-- \\OhMyBrew\\BasicShopifyAPI -->
<g id="node1" class="node">
<title>\\OhMyBrew\\BasicShopifyAPI</title>
<polygon fill="none" stroke="#000000" points="139.0242,-60 23.9919,-60 23.9919,-24 139.0242,-24 139.0242,-60"/>
<text text-anchor="middle" x="81.5081" y="-38.7" font-family="Courier,monospace" font-size="11.00" fill="#000000">BasicShopifyAPI</text>
</g>
</g>
</svg>
