<?xml version="1.0" encoding="UTF-8" standalone="no"?>
<!DOCTYPE svg PUBLIC "-//W3C//DTD SVG 1.1//EN"
 "http://www.w3.org/Graphics/SVG/1.1/DTD/svg11.dtd">
<!-- Generated by graphviz version 2.40.1 (20161225.0304)
 -->
<!-- Title: G Pages: 1 -->
<svg width="295pt" height="219pt"
 viewBox="0.00 0.00 294.82 219.00" xmlns="http://www.w3.org/2000/svg" xmlns:xlink="http://www.w3.org/1999/xlink">
<g id="graph0" class="graph" transform="scale(1 1) rotate(0) translate(4 215)">
<title>G</title>
<polygon fill="#ffffff" stroke="transparent" points="-4,4 -4,-215 290.8193,-215 290.8193,4 -4,4"/>
<g id="clust1" class="cluster">
<title>cluster_Global</title>
<path fill="none" stroke="#c0c0c0" d="M20,-8C20,-8 266.8193,-8 266.8193,-8 272.8193,-8 278.8193,-14 278.8193,-20 278.8193,-20 278.8193,-191 278.8193,-191 278.8193,-197 272.8193,-203 266.8193,-203 266.8193,-203 20,-203 20,-203 14,-203 8,-197 8,-191 8,-191 8,-20 8,-20 8,-14 14,-8 20,-8"/>
<text text-anchor="middle" x="143.4097" y="-190.2" font-family="Times,serif" font-size="11.00" fill="#c0c0c0">Global</text>
</g>
<g id="clust2" class="cluster">
<title>cluster_\OhMyBrew</title>
<path fill="none" stroke="#c0c0c0" d="M28,-16C28,-16 258.8193,-16 258.8193,-16 264.8193,-16 270.8193,-22 270.8193,-28 270.8193,-28 270.8193,-164 270.8193,-164 270.8193,-170 264.8193,-176 258.8193,-176 258.8193,-176 28,-176 28,-176 22,-176 16,-170 16,-164 16,-164 16,-28 16,-28 16,-22 22,-16 28,-16"/>
<text text-anchor="middle" x="143.4097" y="-163.2" font-family="Times,serif" font-size="11.00" fill="#c0c0c0">OhMyBrew</text>
</g>
<g id="clust3" class="cluster">
<title>cluster_\OhMyBrew\ShopifyAPI</title>
<path fill="none" stroke="#c0c0c0" d="M36,-24C36,-24 250.8193,-24 250.8193,-24 256.8193,-24 262.8193,-30 262.8193,-36 262.8193,-36 262.8193,-137 262.8193,-137 262.8193,-143 256.8193,-149 250.8193,-149 250.8193,-149 36,-149 36,-149 30,-149 24,-143 24,-137 24,-137 24,-36 24,-36 24,-30 30,-24 36,-24"/>
<text text-anchor="middle" x="143.4097" y="-136.2" font-family="Times,serif" font-size="11.00" fill="#c0c0c0">ShopifyAPI</text>
</g>
<!-- \\OhMyBrew\\ShopifyAPI\\GraphAPI -->
<g id="node1" class="node">
<title>\\OhMyBrew\\ShopifyAPI\\GraphAPI</title>
<polygon fill="none" stroke="#000000" points="254.7239,-122 186.1062,-122 186.1062,-86 254.7239,-86 254.7239,-122"/>
<text text-anchor="middle" x="220.415" y="-100.7" font-family="Courier,monospace" font-size="11.00" fill="#000000">GraphAPI</text>
</g>
<!-- \\OhMyBrew\\ShopifyAPI\\BaseAPI -->
<g id="node3" class="node">
<title>\\OhMyBrew\\ShopifyAPI\\BaseAPI</title>
<polygon fill="none" stroke="#000000" points="114.0161,-95 31.9946,-95 31.9946,-59 114.0161,-59 114.0161,-95"/>
<text text-anchor="start" x="40" y="-79.2" font-family="Courier,monospace" font-size="11.00" fill="#000000">«abstract»</text>
<text text-anchor="start" x="49.9016" y="-68.2" font-family="Courier,monospace" font-size="11.00" fill="#000000">BaseAPI</text>
</g>
<!-- \\OhMyBrew\\ShopifyAPI\\GraphAPI&#45;&gt;\\OhMyBrew\\ShopifyAPI\\BaseAPI -->
<g id="edge1" class="edge">
<title>\\OhMyBrew\\ShopifyAPI\\GraphAPI&#45;&gt;\\OhMyBrew\\ShopifyAPI\\BaseAPI</title>
<path fill="none" stroke="#000000" d="M185.854,-97.6697C167.5089,-94.3095 144.606,-90.1146 124.2357,-86.3835"/>
<polygon fill="none" stroke="#000000" points="124.6291,-82.8974 114.1621,-84.5384 123.3679,-89.7829 124.6291,-82.8974"/>
</g>
<!-- \\OhMyBrew\\ShopifyAPI\\RestAPI -->
<g id="node2" class="node">
<title>\\OhMyBrew\\ShopifyAPI\\RestAPI</title>
<polygon fill="none" stroke="#000000" points="251.6229,-68 189.2072,-68 189.2072,-32 251.6229,-32 251.6229,-68"/>
<text text-anchor="middle" x="220.415" y="-46.7" font-family="Courier,monospace" font-size="11.00" fill="#000000">RestAPI</text>
</g>
<!-- \\OhMyBrew\\ShopifyAPI\\RestAPI&#45;&gt;\\OhMyBrew\\ShopifyAPI\\BaseAPI -->
<g id="edge2" class="edge">
<title>\\OhMyBrew\\ShopifyAPI\\RestAPI&#45;&gt;\\OhMyBrew\\ShopifyAPI\\BaseAPI</title>
<path fill="none" stroke="#000000" d="M189.1532,-55.726C170.2569,-59.1871 145.7145,-63.6824 124.061,-67.6485"/>
<polygon fill="none" stroke="#000000" points="123.2301,-64.2424 114.0243,-69.4868 124.4913,-71.1278 123.2301,-64.2424"/>
</g>
</g>
</svg>
