<?xml version="1.0" encoding="UTF-8" standalone="no"?>
<!DOCTYPE svg PUBLIC "-//W3C//DTD SVG 1.1//EN"
 "http://www.w3.org/Graphics/SVG/1.1/DTD/svg11.dtd">
<!-- Generated by graphviz version 2.40.1 (20161225.0304)
 -->
<!-- Title: G Pages: 1 -->
<svg width="672pt" height="1082pt"
 viewBox="0.00 0.00 672.37 1082.00" xmlns="http://www.w3.org/2000/svg" xmlns:xlink="http://www.w3.org/1999/xlink">
<g id="graph0" class="graph" transform="scale(1 1) rotate(0) translate(4 1078)">
<title>G</title>
<polygon fill="#ffffff" stroke="transparent" points="-4,4 -4,-1078 668.3725,-1078 668.3725,4 -4,4"/>
<g id="clust1" class="cluster">
<title>cluster_Global</title>
<path fill="none" stroke="#c0c0c0" d="M20,-44C20,-44 644.3725,-44 644.3725,-44 650.3725,-44 656.3725,-50 656.3725,-56 656.3725,-56 656.3725,-1054 656.3725,-1054 656.3725,-1060 650.3725,-1066 644.3725,-1066 644.3725,-1066 20,-1066 20,-1066 14,-1066 8,-1060 8,-1054 8,-1054 8,-56 8,-56 8,-50 14,-44 20,-44"/>
<text text-anchor="middle" x="332.1863" y="-1053.2" font-family="Times,serif" font-size="11.00" fill="#c0c0c0">Global</text>
</g>
<g id="clust2" class="cluster">
<title>cluster_\Osiset</title>
<path fill="none" stroke="#c0c0c0" d="M51.3933,-52C51.3933,-52 636.3725,-52 636.3725,-52 642.3725,-52 648.3725,-58 648.3725,-64 648.3725,-64 648.3725,-874 648.3725,-874 648.3725,-880 642.3725,-886 636.3725,-886 636.3725,-886 51.3933,-886 51.3933,-886 45.3933,-886 39.3933,-880 39.3933,-874 39.3933,-874 39.3933,-64 39.3933,-64 39.3933,-58 45.3933,-52 51.3933,-52"/>
<text text-anchor="middle" x="343.8829" y="-873.2" font-family="Times,serif" font-size="11.00" fill="#c0c0c0">Osiset</text>
</g>
<g id="clust3" class="cluster">
<title>cluster_\Osiset\BasicShopifyAPI</title>
<path fill="none" stroke="#c0c0c0" d="M59.3933,-60C59.3933,-60 628.3725,-60 628.3725,-60 634.3725,-60 640.3725,-66 640.3725,-72 640.3725,-72 640.3725,-846 640.3725,-846 640.3725,-852 634.3725,-858 628.3725,-858 628.3725,-858 59.3933,-858 59.3933,-858 53.3933,-858 47.3933,-852 47.3933,-846 47.3933,-846 47.3933,-72 47.3933,-72 47.3933,-66 53.3933,-60 59.3933,-60"/>
<text text-anchor="middle" x="343.8829" y="-845.2" font-family="Times,serif" font-size="11.00" fill="#c0c0c0">BasicShopifyAPI</text>
</g>
<g id="clust4" class="cluster">
<title>cluster_\Osiset\BasicShopifyAPI\Middleware</title>
<path fill="none" stroke="#c0c0c0" d="M277.0796,-596C277.0796,-596 620.3725,-596 620.3725,-596 626.3725,-596 632.3725,-602 632.3725,-608 632.3725,-608 632.3725,-818 632.3725,-818 632.3725,-824 626.3725,-830 620.3725,-830 620.3725,-830 277.0796,-830 277.0796,-830 271.0796,-830 265.0796,-824 265.0796,-818 265.0796,-818 265.0796,-608 265.0796,-608 265.0796,-602 271.0796,-596 277.0796,-596"/>
<text text-anchor="middle" x="448.7261" y="-817.2" font-family="Times,serif" font-size="11.00" fill="#c0c0c0">Middleware</text>
</g>
<g id="clust5" class="cluster">
<title>cluster_\Osiset\BasicShopifyAPI\Traits</title>
<path fill="none" stroke="#c0c0c0" d="M497.3725,-408C497.3725,-408 620.3725,-408 620.3725,-408 626.3725,-408 632.3725,-414 632.3725,-420 632.3725,-420 632.3725,-576 632.3725,-576 632.3725,-582 626.3725,-588 620.3725,-588 620.3725,-588 497.3725,-588 497.3725,-588 491.3725,-588 485.3725,-582 485.3725,-576 485.3725,-576 485.3725,-420 485.3725,-420 485.3725,-414 491.3725,-408 497.3725,-408"/>
<text text-anchor="middle" x="558.8725" y="-575.2" font-family="Times,serif" font-size="11.00" fill="#c0c0c0">Traits</text>
</g>
<g id="clust6" class="cluster">
<title>cluster_\Osiset\BasicShopifyAPI\Deferrers</title>
<path fill="none" stroke="#c0c0c0" d="M534.8725,-282C534.8725,-282 582.8725,-282 582.8725,-282 588.8725,-282 594.8725,-288 594.8725,-294 594.8725,-294 594.8725,-342 594.8725,-342 594.8725,-348 588.8725,-354 582.8725,-354 582.8725,-354 534.8725,-354 534.8725,-354 528.8725,-354 522.8725,-348 522.8725,-342 522.8725,-342 522.8725,-294 522.8725,-294 522.8725,-288 528.8725,-282 534.8725,-282"/>
<text text-anchor="middle" x="558.8725" y="-341.2" font-family="Times,serif" font-size="11.00" fill="#c0c0c0">Deferrers</text>
</g>
<g id="clust7" class="cluster">
<title>cluster_\Osiset\BasicShopifyAPI\Clients</title>
<path fill="none" stroke="#c0c0c0" d="M535.8725,-68C535.8725,-68 581.8725,-68 581.8725,-68 587.8725,-68 593.8725,-74 593.8725,-80 593.8725,-80 593.8725,-182 593.8725,-182 593.8725,-188 587.8725,-194 581.8725,-194 581.8725,-194 535.8725,-194 535.8725,-194 529.8725,-194 523.8725,-188 523.8725,-182 523.8725,-182 523.8725,-80 523.8725,-80 523.8725,-74 529.8725,-68 535.8725,-68"/>
<text text-anchor="middle" x="558.8725" y="-181.2" font-family="Times,serif" font-size="11.00" fill="#c0c0c0">Clients</text>
</g>
<g id="clust8" class="cluster">
<title>cluster_\Osiset\BasicShopifyAPI\Contracts</title>
<path fill="none" stroke="#c0c0c0" d="M67.3933,-107C67.3933,-107 393.5796,-107 393.5796,-107 399.5796,-107 405.5796,-113 405.5796,-119 405.5796,-119 405.5796,-383 405.5796,-383 405.5796,-389 399.5796,-395 393.5796,-395 393.5796,-395 67.3933,-395 67.3933,-395 61.3933,-395 55.3933,-389 55.3933,-383 55.3933,-383 55.3933,-119 55.3933,-119 55.3933,-113 61.3933,-107 67.3933,-107"/>
<text text-anchor="middle" x="230.4864" y="-382.2" font-family="Times,serif" font-size="11.00" fill="#c0c0c0">Contracts</text>
</g>
<g id="clust9" class="cluster">
<title>cluster_\Osiset\BasicShopifyAPI\Store</title>
<path fill="none" stroke="#c0c0c0" d="M534.3725,-202C534.3725,-202 583.3725,-202 583.3725,-202 589.3725,-202 595.3725,-208 595.3725,-214 595.3725,-214 595.3725,-262 595.3725,-262 595.3725,-268 589.3725,-274 583.3725,-274 583.3725,-274 534.3725,-274 534.3725,-274 528.3725,-274 522.3725,-268 522.3725,-262 522.3725,-262 522.3725,-214 522.3725,-214 522.3725,-208 528.3725,-202 534.3725,-202"/>
<text text-anchor="middle" x="558.8725" y="-261.2" font-family="Times,serif" font-size="11.00" fill="#c0c0c0">Store</text>
</g>
<g id="clust10" class="cluster">
<title>cluster_Global\Osiset</title>
<path fill="none" stroke="#c0c0c0" d="M28,-894C28,-894 202.7866,-894 202.7866,-894 208.7866,-894 214.7866,-900 214.7866,-906 214.7866,-906 214.7866,-1026 214.7866,-1026 214.7866,-1032 208.7866,-1038 202.7866,-1038 202.7866,-1038 28,-1038 28,-1038 22,-1038 16,-1032 16,-1026 16,-1026 16,-906 16,-906 16,-900 22,-894 28,-894"/>
<text text-anchor="middle" x="115.3933" y="-1025.2" font-family="Times,serif" font-size="11.00" fill="#c0c0c0">Osiset</text>
</g>
<g id="clust11" class="cluster">
<title>cluster_Global\Osiset\BasicShopifyAPI</title>
<path fill="none" stroke="#c0c0c0" d="M36,-902C36,-902 194.7866,-902 194.7866,-902 200.7866,-902 206.7866,-908 206.7866,-914 206.7866,-914 206.7866,-998 206.7866,-998 206.7866,-1004 200.7866,-1010 194.7866,-1010 194.7866,-1010 36,-1010 36,-1010 30,-1010 24,-1004 24,-998 24,-998 24,-914 24,-914 24,-908 30,-902 36,-902"/>
<text text-anchor="middle" x="115.3933" y="-997.2" font-family="Times,serif" font-size="11.00" fill="#c0c0c0">BasicShopifyAPI</text>
</g>
<g id="clust12" class="cluster">
<title>cluster_Global\Osiset\BasicShopifyAPI\Contracts</title>
<path fill="none" stroke="#c0c0c0" d="M44,-910C44,-910 186.7866,-910 186.7866,-910 192.7866,-910 198.7866,-916 198.7866,-922 198.7866,-922 198.7866,-970 198.7866,-970 198.7866,-976 192.7866,-982 186.7866,-982 186.7866,-982 44,-982 44,-982 38,-982 32,-976 32,-970 32,-970 32,-922 32,-922 32,-916 38,-910 44,-910"/>
<text text-anchor="middle" x="115.3933" y="-969.2" font-family="Times,serif" font-size="11.00" fill="#c0c0c0">Contracts</text>
</g>
<!-- \\Osiset\\BasicShopifyAPI\\Middleware\\RateLimiting -->
<g id="node1" class="node">
<title>\\Osiset\\BasicShopifyAPI\\Middleware\\RateLimiting</title>
<polygon fill="none" stroke="#000000" points="607.8725,-802 509.8725,-802 509.8725,-766 607.8725,-766 607.8725,-802"/>
<text text-anchor="middle" x="558.8725" y="-781.2" font-family="Courier,monospace" font-size="11.00" fill="#000000">RateLimiting</text>
</g>
<!-- \\Osiset\\BasicShopifyAPI\\Middleware\\AbstractMiddleware -->
<g id="node2" class="node">
<title>\\Osiset\\BasicShopifyAPI\\Middleware\\AbstractMiddleware</title>
<polygon fill="none" stroke="#000000" points="411.0796,-721 273.0796,-721 273.0796,-685 411.0796,-685 411.0796,-721"/>
<text text-anchor="start" x="308.0796" y="-706.2" font-family="Courier,monospace" font-size="11.00" fill="#000000">«abstract»</text>
<text text-anchor="start" x="281.0796" y="-694.2" font-family="Courier,monospace" font-size="11.00" fill="#000000">AbstractMiddleware</text>
</g>
<!-- \\Osiset\\BasicShopifyAPI\\Middleware\\RateLimiting&#45;&gt;\\Osiset\\BasicShopifyAPI\\Middleware\\AbstractMiddleware -->
<g id="edge1" class="edge">
<title>\\Osiset\\BasicShopifyAPI\\Middleware\\RateLimiting&#45;&gt;\\Osiset\\BasicShopifyAPI\\Middleware\\AbstractMiddleware</title>
<path fill="none" stroke="#000000" d="M509.5474,-766.7433C501.4101,-763.6504 493.1096,-760.343 485.3725,-757 456.1792,-744.3863 451.055,-736.4154 421.3725,-725 421.0475,-724.875 420.7215,-724.7504 420.3945,-724.6262"/>
<polygon fill="none" stroke="#000000" points="421.2842,-721.2267 410.6897,-721.1366 418.9156,-727.8139 421.2842,-721.2267"/>
</g>
<!-- \\Osiset\\BasicShopifyAPI\\Middleware\\UpdateApiLimits -->
<g id="node3" class="node">
<title>\\Osiset\\BasicShopifyAPI\\Middleware\\UpdateApiLimits</title>
<polygon fill="none" stroke="#000000" points="617.8725,-748 499.8725,-748 499.8725,-712 617.8725,-712 617.8725,-748"/>
<text text-anchor="middle" x="558.8725" y="-727.2" font-family="Courier,monospace" font-size="11.00" fill="#000000">UpdateApiLimits</text>
</g>
<!-- \\Osiset\\BasicShopifyAPI\\Middleware\\UpdateApiLimits&#45;&gt;\\Osiset\\BasicShopifyAPI\\Middleware\\AbstractMiddleware -->
<g id="edge5" class="edge">
<title>\\Osiset\\BasicShopifyAPI\\Middleware\\UpdateApiLimits&#45;&gt;\\Osiset\\BasicShopifyAPI\\Middleware\\AbstractMiddleware</title>
<path fill="none" stroke="#000000" d="M499.6329,-722.6221C475.5055,-719.6172 447.2557,-716.0989 421.3915,-712.8777"/>
<polygon fill="none" stroke="#000000" points="421.5889,-709.3754 411.233,-711.6126 420.7237,-716.3217 421.5889,-709.3754"/>
</g>
<!-- \\Osiset\\BasicShopifyAPI\\Middleware\\UpdateRequestTime -->
<g id="node4" class="node">
<title>\\Osiset\\BasicShopifyAPI\\Middleware\\UpdateRequestTime</title>
<polygon fill="none" stroke="#000000" points="624.3725,-694 493.3725,-694 493.3725,-658 624.3725,-658 624.3725,-694"/>
<text text-anchor="middle" x="558.8725" y="-673.2" font-family="Courier,monospace" font-size="11.00" fill="#000000">UpdateRequestTime</text>
</g>
<!-- \\Osiset\\BasicShopifyAPI\\Middleware\\UpdateRequestTime&#45;&gt;\\Osiset\\BasicShopifyAPI\\Middleware\\AbstractMiddleware -->
<g id="edge10" class="edge">
<title>\\Osiset\\BasicShopifyAPI\\Middleware\\UpdateRequestTime&#45;&gt;\\Osiset\\BasicShopifyAPI\\Middleware\\AbstractMiddleware</title>
<path fill="none" stroke="#000000" d="M493.2392,-684.1742C470.5575,-686.999 444.9009,-690.1944 421.2503,-693.1399"/>
<polygon fill="none" stroke="#000000" points="420.7424,-689.676 411.2516,-694.3851 421.6076,-696.6223 420.7424,-689.676"/>
</g>
<!-- \\Osiset\\BasicShopifyAPI\\Middleware\\AuthRequest -->
<g id="node5" class="node">
<title>\\Osiset\\BasicShopifyAPI\\Middleware\\AuthRequest</title>
<polygon fill="none" stroke="#000000" points="604.3725,-640 513.3725,-640 513.3725,-604 604.3725,-604 604.3725,-640"/>
<text text-anchor="middle" x="558.8725" y="-619.2" font-family="Courier,monospace" font-size="11.00" fill="#000000">AuthRequest</text>
</g>
<!-- \\Osiset\\BasicShopifyAPI\\Middleware\\AuthRequest&#45;&gt;\\Osiset\\BasicShopifyAPI\\Middleware\\AbstractMiddleware -->
<g id="edge11" class="edge">
<title>\\Osiset\\BasicShopifyAPI\\Middleware\\AuthRequest&#45;&gt;\\Osiset\\BasicShopifyAPI\\Middleware\\AbstractMiddleware</title>
<path fill="none" stroke="#000000" d="M513.3696,-638.6481C504.1003,-642.0584 494.4185,-645.6341 485.3725,-649 456.9681,-659.569 425.4459,-671.4334 399.2154,-681.3436"/>
<polygon fill="none" stroke="#000000" points="397.923,-678.0903 389.8066,-684.9002 400.3981,-684.6381 397.923,-678.0903"/>
</g>
<!-- \\Osiset\\BasicShopifyAPI\\Traits\\ResponseTransform -->
<g id="node6" class="node">
<title>\\Osiset\\BasicShopifyAPI\\Traits\\ResponseTransform</title>
<polygon fill="none" stroke="#000000" points="624.3725,-560 493.3725,-560 493.3725,-524 624.3725,-524 624.3725,-560"/>
<text text-anchor="middle" x="558.8725" y="-539.2" font-family="Courier,monospace" font-size="11.00" fill="#000000">ResponseTransform</text>
</g>
<!-- \\Osiset\\BasicShopifyAPI\\Traits\\IsRequestType -->
<g id="node7" class="node">
<title>\\Osiset\\BasicShopifyAPI\\Traits\\IsRequestType</title>
<polygon fill="none" stroke="#000000" points="610.8725,-506 506.8725,-506 506.8725,-470 610.8725,-470 610.8725,-506"/>
<text text-anchor="middle" x="558.8725" y="-485.2" font-family="Courier,monospace" font-size="11.00" fill="#000000">IsRequestType</text>
</g>
<!-- \\Osiset\\BasicShopifyAPI\\Traits\\IsResponseType -->
<g id="node8" class="node">
<title>\\Osiset\\BasicShopifyAPI\\Traits\\IsResponseType</title>
<polygon fill="none" stroke="#000000" points="614.3725,-452 503.3725,-452 503.3725,-416 614.3725,-416 614.3725,-452"/>
<text text-anchor="middle" x="558.8725" y="-431.2" font-family="Courier,monospace" font-size="11.00" fill="#000000">IsResponseType</text>
</g>
<!-- \\Osiset\\BasicShopifyAPI\\Deferrers\\Sleep -->
<g id="node9" class="node">
<title>\\Osiset\\BasicShopifyAPI\\Deferrers\\Sleep</title>
<polygon fill="none" stroke="#000000" points="585.8725,-326 531.8725,-326 531.8725,-290 585.8725,-290 585.8725,-326"/>
<text text-anchor="middle" x="558.8725" y="-305.2" font-family="Courier,monospace" font-size="11.00" fill="#000000">Sleep</text>
</g>
<!-- \\Osiset\\BasicShopifyAPI\\Contracts\\TimeDeferrer -->
<g id="node17" class="node">
<title>\\Osiset\\BasicShopifyAPI\\Contracts\\TimeDeferrer</title>
<polygon fill="none" stroke="#000000" points="391.0796,-313 293.0796,-313 293.0796,-277 391.0796,-277 391.0796,-313"/>
<text text-anchor="middle" x="342.0796" y="-292.2" font-family="Courier,monospace" font-size="11.00" fill="#000000">TimeDeferrer</text>
</g>
<!-- \\Osiset\\BasicShopifyAPI\\Deferrers\\Sleep&#45;&gt;\\Osiset\\BasicShopifyAPI\\Contracts\\TimeDeferrer -->
<g id="edge2" class="edge">
<title>\\Osiset\\BasicShopifyAPI\\Deferrers\\Sleep&#45;&gt;\\Osiset\\BasicShopifyAPI\\Contracts\\TimeDeferrer</title>
<path fill="none" stroke="#000000" stroke-dasharray="1,5" d="M531.8539,-306.3798C499.4521,-304.4369 444.1887,-301.123 401.6287,-298.5709"/>
<polygon fill="none" stroke="#000000" points="401.5718,-295.0613 391.3802,-297.9563 401.1528,-302.0487 401.5718,-295.0613"/>
</g>
<!-- \\Osiset\\BasicShopifyAPI\\Clients\\Rest -->
<g id="node10" class="node">
<title>\\Osiset\\BasicShopifyAPI\\Clients\\Rest</title>
<polygon fill="none" stroke="#000000" points="585.8725,-166 531.8725,-166 531.8725,-130 585.8725,-130 585.8725,-166"/>
<text text-anchor="middle" x="558.8725" y="-145.2" font-family="Courier,monospace" font-size="11.00" fill="#000000">Rest</text>
</g>
<!-- \\Osiset\\BasicShopifyAPI\\Contracts\\RestRequester -->
<g id="node13" class="node">
<title>\\Osiset\\BasicShopifyAPI\\Contracts\\RestRequester</title>
<polygon fill="none" stroke="#000000" points="394.0796,-205 290.0796,-205 290.0796,-169 394.0796,-169 394.0796,-205"/>
<text text-anchor="middle" x="342.0796" y="-184.2" font-family="Courier,monospace" font-size="11.00" fill="#000000">RestRequester</text>
</g>
<!-- \\Osiset\\BasicShopifyAPI\\Clients\\Rest&#45;&gt;\\Osiset\\BasicShopifyAPI\\Contracts\\RestRequester -->
<g id="edge4" class="edge">
<title>\\Osiset\\BasicShopifyAPI\\Clients\\Rest&#45;&gt;\\Osiset\\BasicShopifyAPI\\Contracts\\RestRequester</title>
<path fill="none" stroke="#000000" stroke-dasharray="1,5" d="M531.8539,-152.8605C500.1192,-158.5694 446.4545,-168.2235 404.2732,-175.8117"/>
<polygon fill="none" stroke="#000000" points="403.5892,-172.3784 394.3669,-177.5938 404.8287,-179.2679 403.5892,-172.3784"/>
</g>
<!-- AbstractClient -->
<g id="node24" class="node">
<title>AbstractClient</title>
<ellipse fill="none" stroke="#000000" cx="342.0796" cy="-18" rx="79.0865" ry="18"/>
<text text-anchor="middle" x="342.0796" y="-14.3" font-family="Times,serif" font-size="14.00" fill="#000000">AbstractClient</text>
</g>
<!-- \\Osiset\\BasicShopifyAPI\\Clients\\Rest&#45;&gt;AbstractClient -->
<g id="edge3" class="edge">
<title>\\Osiset\\BasicShopifyAPI\\Clients\\Rest&#45;&gt;AbstractClient</title>
<path fill="none" stroke="#000000" d="M531.5836,-139.9387C517.4038,-135.267 500.0243,-128.7707 485.3725,-121 442.7549,-98.3973 398.3539,-64.6333 370.4859,-41.9887"/>
<polygon fill="none" stroke="#000000" points="372.6852,-39.2659 362.7341,-35.6292 368.2454,-44.6777 372.6852,-39.2659"/>
</g>
<!-- \\Osiset\\BasicShopifyAPI\\Clients\\Graph -->
<g id="node11" class="node">
<title>\\Osiset\\BasicShopifyAPI\\Clients\\Graph</title>
<polygon fill="none" stroke="#000000" points="585.8725,-112 531.8725,-112 531.8725,-76 585.8725,-76 585.8725,-112"/>
<text text-anchor="middle" x="558.8725" y="-91.2" font-family="Courier,monospace" font-size="11.00" fill="#000000">Graph</text>
</g>
<!-- \\Osiset\\BasicShopifyAPI\\Contracts\\GraphRequester -->
<g id="node16" class="node">
<title>\\Osiset\\BasicShopifyAPI\\Contracts\\GraphRequester</title>
<polygon fill="none" stroke="#000000" points="397.5796,-151 286.5796,-151 286.5796,-115 397.5796,-115 397.5796,-151"/>
<text text-anchor="middle" x="342.0796" y="-130.2" font-family="Courier,monospace" font-size="11.00" fill="#000000">GraphRequester</text>
</g>
<!-- \\Osiset\\BasicShopifyAPI\\Clients\\Graph&#45;&gt;\\Osiset\\BasicShopifyAPI\\Contracts\\GraphRequester -->
<g id="edge9" class="edge">
<title>\\Osiset\\BasicShopifyAPI\\Clients\\Graph&#45;&gt;\\Osiset\\BasicShopifyAPI\\Contracts\\GraphRequester</title>
<path fill="none" stroke="#000000" stroke-dasharray="1,5" d="M531.8539,-98.8605C501.025,-104.4065 449.5002,-113.6756 407.9125,-121.157"/>
<polygon fill="none" stroke="#000000" points="407.0676,-117.7527 397.8453,-122.968 408.3071,-124.6421 407.0676,-117.7527"/>
</g>
<!-- \\Osiset\\BasicShopifyAPI\\Clients\\Graph&#45;&gt;AbstractClient -->
<g id="edge8" class="edge">
<title>\\Osiset\\BasicShopifyAPI\\Clients\\Graph&#45;&gt;AbstractClient</title>
<path fill="none" stroke="#000000" d="M531.8539,-84.5282C497.7692,-72.5793 438.3866,-51.7618 395.1052,-36.5889"/>
<polygon fill="none" stroke="#000000" points="396.174,-33.2548 385.5792,-33.2494 393.8582,-39.8607 396.174,-33.2548"/>
</g>
<!-- \\Osiset\\BasicShopifyAPI\\Contracts\\Respondable -->
<g id="node12" class="node">
<title>\\Osiset\\BasicShopifyAPI\\Contracts\\Respondable</title>
<polygon fill="none" stroke="#000000" points="387.5796,-367 296.5796,-367 296.5796,-331 387.5796,-331 387.5796,-367"/>
<text text-anchor="middle" x="342.0796" y="-346.2" font-family="Courier,monospace" font-size="11.00" fill="#000000">Respondable</text>
</g>
<!-- \\Osiset\\BasicShopifyAPI\\Contracts\\LimitAccesser -->
<g id="node14" class="node">
<title>\\Osiset\\BasicShopifyAPI\\Contracts\\LimitAccesser</title>
<polygon fill="none" stroke="#000000" points="167.3933,-259 63.3933,-259 63.3933,-223 167.3933,-223 167.3933,-259"/>
<text text-anchor="middle" x="115.3933" y="-238.2" font-family="Courier,monospace" font-size="11.00" fill="#000000">LimitAccesser</text>
</g>
<!-- \\Osiset\\BasicShopifyAPI\\Contracts\\RestRequester&#45;&gt;\\Osiset\\BasicShopifyAPI\\Contracts\\LimitAccesser -->
<g id="edge12" class="edge">
<title>\\Osiset\\BasicShopifyAPI\\Contracts\\RestRequester&#45;&gt;\\Osiset\\BasicShopifyAPI\\Contracts\\LimitAccesser</title>
<path fill="none" stroke="#000000" d="M290.0732,-199.3887C256.4991,-207.3865 212.6498,-217.8321 177.2841,-226.2567"/>
<polygon fill="none" stroke="#000000" points="176.4665,-222.8535 167.5498,-228.5756 178.0886,-229.6629 176.4665,-222.8535"/>
</g>
<!-- \\Osiset\\BasicShopifyAPI\\Contracts\\TimeAccesser -->
<g id="node18" class="node">
<title>\\Osiset\\BasicShopifyAPI\\Contracts\\TimeAccesser</title>
<polygon fill="none" stroke="#000000" points="164.3933,-151 66.3933,-151 66.3933,-115 164.3933,-115 164.3933,-151"/>
<text text-anchor="middle" x="115.3933" y="-130.2" font-family="Courier,monospace" font-size="11.00" fill="#000000">TimeAccesser</text>
</g>
<!-- \\Osiset\\BasicShopifyAPI\\Contracts\\RestRequester&#45;&gt;\\Osiset\\BasicShopifyAPI\\Contracts\\TimeAccesser -->
<g id="edge13" class="edge">
<title>\\Osiset\\BasicShopifyAPI\\Contracts\\RestRequester&#45;&gt;\\Osiset\\BasicShopifyAPI\\Contracts\\TimeAccesser</title>
<path fill="none" stroke="#000000" d="M290.0732,-174.6113C255.5432,-166.3858 210.1447,-155.5712 174.2846,-147.0288"/>
<polygon fill="none" stroke="#000000" points="174.979,-143.5963 164.4402,-144.6837 173.3569,-150.4058 174.979,-143.5963"/>
</g>
<!-- \\Osiset\\BasicShopifyAPI\\Contracts\\ClientAware -->
<g id="node19" class="node">
<title>\\Osiset\\BasicShopifyAPI\\Contracts\\ClientAware</title>
<polygon fill="none" stroke="#000000" points="160.8933,-205 69.8933,-205 69.8933,-169 160.8933,-169 160.8933,-205"/>
<text text-anchor="middle" x="115.3933" y="-184.2" font-family="Courier,monospace" font-size="11.00" fill="#000000">ClientAware</text>
</g>
<!-- \\Osiset\\BasicShopifyAPI\\Contracts\\RestRequester&#45;&gt;\\Osiset\\BasicShopifyAPI\\Contracts\\ClientAware -->
<g id="edge15" class="edge">
<title>\\Osiset\\BasicShopifyAPI\\Contracts\\RestRequester&#45;&gt;\\Osiset\\BasicShopifyAPI\\Contracts\\ClientAware</title>
<path fill="none" stroke="#000000" d="M290.0732,-187C254.6201,-187 207.7095,-187 171.4293,-187"/>
<polygon fill="none" stroke="#000000" points="171.0174,-183.5001 161.0174,-187 171.0174,-190.5001 171.0174,-183.5001"/>
</g>
<!-- SessionAware -->
<g id="node22" class="node">
<title>SessionAware</title>
<ellipse fill="none" stroke="#000000" cx="115.3933" cy="-936" rx="75.2868" ry="18"/>
<text text-anchor="middle" x="115.3933" y="-932.3" font-family="Times,serif" font-size="14.00" fill="#c0c0c0">SessionAware</text>
</g>
<!-- \\Osiset\\BasicShopifyAPI\\Contracts\\RestRequester&#45;&gt;SessionAware -->
<g id="edge14" class="edge">
<title>\\Osiset\\BasicShopifyAPI\\Contracts\\RestRequester&#45;&gt;SessionAware</title>
<path fill="none" stroke="#000000" d="M290.0259,-196.1301C279.785,-200.1079 269.9947,-205.8146 262.7866,-214 239.0152,-240.9947 143.2322,-777.918 120.3301,-907.8636"/>
<polygon fill="none" stroke="#000000" points="116.8611,-907.3823 118.5747,-917.8376 123.7552,-908.5957 116.8611,-907.3823"/>
</g>
<!-- \\Osiset\\BasicShopifyAPI\\Contracts\\StateStorage -->
<g id="node15" class="node">
<title>\\Osiset\\BasicShopifyAPI\\Contracts\\StateStorage</title>
<polygon fill="none" stroke="#000000" points="391.0796,-259 293.0796,-259 293.0796,-223 391.0796,-223 391.0796,-259"/>
<text text-anchor="middle" x="342.0796" y="-238.2" font-family="Courier,monospace" font-size="11.00" fill="#000000">StateStorage</text>
</g>
<!-- \\Osiset\\BasicShopifyAPI\\Contracts\\GraphRequester&#45;&gt;\\Osiset\\BasicShopifyAPI\\Contracts\\LimitAccesser -->
<g id="edge16" class="edge">
<title>\\Osiset\\BasicShopifyAPI\\Contracts\\GraphRequester&#45;&gt;\\Osiset\\BasicShopifyAPI\\Contracts\\LimitAccesser</title>
<path fill="none" stroke="#000000" d="M286.1785,-147.9268C277.999,-151.2611 269.9343,-155.2537 262.7866,-160 236.0362,-177.7631 242.0828,-197.0875 214.7866,-214 203.4614,-221.017 190.3092,-226.2366 177.3527,-230.1106"/>
<polygon fill="none" stroke="#000000" points="176.2288,-226.7897 167.5164,-232.8183 178.0867,-233.5386 176.2288,-226.7897"/>
</g>
<!-- \\Osiset\\BasicShopifyAPI\\Contracts\\GraphRequester&#45;&gt;\\Osiset\\BasicShopifyAPI\\Contracts\\TimeAccesser -->
<g id="edge17" class="edge">
<title>\\Osiset\\BasicShopifyAPI\\Contracts\\GraphRequester&#45;&gt;\\Osiset\\BasicShopifyAPI\\Contracts\\TimeAccesser</title>
<path fill="none" stroke="#000000" d="M286.3356,-133C252.5955,-133 209.5808,-133 175.1419,-133"/>
<polygon fill="none" stroke="#000000" points="174.749,-129.5001 164.749,-133 174.749,-136.5001 174.749,-129.5001"/>
</g>
<!-- \\Osiset\\BasicShopifyAPI\\Contracts\\GraphRequester&#45;&gt;\\Osiset\\BasicShopifyAPI\\Contracts\\ClientAware -->
<g id="edge19" class="edge">
<title>\\Osiset\\BasicShopifyAPI\\Contracts\\GraphRequester&#45;&gt;\\Osiset\\BasicShopifyAPI\\Contracts\\ClientAware</title>
<path fill="none" stroke="#000000" d="M286.3356,-146.279C251.2569,-154.6353 206.1531,-165.3797 171.0845,-173.7335"/>
<polygon fill="none" stroke="#000000" points="169.9288,-170.4108 161.0121,-176.1329 171.551,-177.2203 169.9288,-170.4108"/>
</g>
<!-- \\Osiset\\BasicShopifyAPI\\Contracts\\GraphRequester&#45;&gt;SessionAware -->
<g id="edge18" class="edge">
<title>\\Osiset\\BasicShopifyAPI\\Contracts\\GraphRequester&#45;&gt;SessionAware</title>
<path fill="none" stroke="#000000" d="M286.2807,-143.5667C277.3992,-147.449 269.0803,-152.7536 262.7866,-160 256.4192,-167.3313 145.8444,-769.6635 120.5279,-907.9306"/>
<polygon fill="none" stroke="#000000" points="117.0841,-907.3066 118.7262,-917.7734 123.9697,-908.5671 117.0841,-907.3066"/>
</g>
<!-- \\Osiset\\BasicShopifyAPI\\Store\\Memory -->
<g id="node20" class="node">
<title>\\Osiset\\BasicShopifyAPI\\Store\\Memory</title>
<polygon fill="none" stroke="#000000" points="587.3725,-246 530.3725,-246 530.3725,-210 587.3725,-210 587.3725,-246"/>
<text text-anchor="middle" x="558.8725" y="-225.2" font-family="Courier,monospace" font-size="11.00" fill="#000000">Memory</text>
</g>
<!-- \\Osiset\\BasicShopifyAPI\\Store\\Memory&#45;&gt;\\Osiset\\BasicShopifyAPI\\Contracts\\StateStorage -->
<g id="edge6" class="edge">
<title>\\Osiset\\BasicShopifyAPI\\Store\\Memory&#45;&gt;\\Osiset\\BasicShopifyAPI\\Contracts\\StateStorage</title>
<path fill="none" stroke="#000000" stroke-dasharray="1,5" d="M530.0841,-229.7263C497.4174,-231.6852 443.253,-234.9331 401.4312,-237.441"/>
<polygon fill="none" stroke="#000000" points="401.1295,-233.9527 391.3569,-238.0451 401.5485,-240.9401 401.1295,-233.9527"/>
</g>
<!-- \\Osiset\\BasicShopifyAPI\\ResponseAccess -->
<g id="node21" class="node">
<title>\\Osiset\\BasicShopifyAPI\\ResponseAccess</title>
<polygon fill="none" stroke="#000000" points="614.3725,-398 503.3725,-398 503.3725,-362 614.3725,-362 614.3725,-398"/>
<text text-anchor="middle" x="558.8725" y="-377.2" font-family="Courier,monospace" font-size="11.00" fill="#000000">ResponseAccess</text>
</g>
<!-- ArrayAccess -->
<g id="node23" class="node">
<title>ArrayAccess</title>
<ellipse fill="none" stroke="#000000" cx="342.0796" cy="-912" rx="69.5877" ry="18"/>
<text text-anchor="middle" x="342.0796" y="-908.3" font-family="Times,serif" font-size="14.00" fill="#c0c0c0">ArrayAccess</text>
</g>
<!-- \\Osiset\\BasicShopifyAPI\\ResponseAccess&#45;&gt;ArrayAccess -->
<g id="edge7" class="edge">
<title>\\Osiset\\BasicShopifyAPI\\ResponseAccess&#45;&gt;ArrayAccess</title>
<path fill="none" stroke="#000000" stroke-dasharray="1,5" d="M503.2677,-390.5426C496.4695,-393.8792 490.2237,-398.2577 485.3725,-404 360.6826,-551.5973 508.9956,-661.7945 421.3725,-834 410.3851,-855.5936 391.1209,-874.757 374.3322,-888.6854"/>
<polygon fill="none" stroke="#000000" points="371.9532,-886.1066 366.3365,-895.0901 376.3295,-891.5699 371.9532,-886.1066"/>
</g>
</g>
</svg>
